<svg width="335" height="335" viewBox="0 0 335 335" fill="none" xmlns="http://www.w3.org/2000/svg">
<g clip-path="url(#clip0_68_143)">
<path d="M334.618 167.309C334.618 259.69 259.705 334.591 167.269 334.604C74.8994 334.604 -0.0133797 259.69 7.17441e-06 167.295C-0.0267665 74.9008 74.886 0 167.295 0C259.705 0 334.618 74.9142 334.618 167.309Z" fill="#EAB300"/>
<path d="M233.132 126.325C230.977 103.919 211.633 96.41 187.188 94.2684V63.1758H168.273V93.4386C163.306 93.4386 158.219 93.5323 153.172 93.6394V63.1758H134.257L134.243 94.2417C130.147 94.322 126.118 94.4023 122.195 94.4023V94.3086L96.1042 94.2952V114.506C96.1042 114.506 110.08 114.238 109.839 114.493C117.51 114.493 120 118.936 120.723 122.778V158.194C121.258 158.194 121.941 158.221 122.717 158.328H120.723L120.709 207.945C120.375 210.354 118.956 214.195 113.601 214.209C113.842 214.423 99.8525 214.209 99.8525 214.209L96.0908 236.802H120.723C125.301 236.802 129.812 236.882 134.23 236.909L134.243 268.35H153.146V237.244C158.326 237.351 163.346 237.391 168.259 237.391L168.246 268.35H187.162V236.976C218.969 235.156 241.258 227.138 244.015 197.264C246.251 173.211 234.939 162.464 216.88 158.127C227.871 152.559 234.738 142.721 233.132 126.325ZM206.653 193.543C206.653 217.033 166.425 214.369 153.587 214.369V172.703C166.425 172.73 206.653 169.049 206.653 193.543ZM197.844 134.771C197.844 156.146 164.27 153.643 153.587 153.656V115.885C164.283 115.885 197.858 112.485 197.844 134.771Z" fill="white"/>
<path d="M120.75 157.364H123.561V159.439H120.75V157.364Z" fill="white"/>
</g>
<defs>
<clipPath id="clip0_68_143">
<rect width="334.618" height="334.618" fill="white"/>
</clipPath>
</defs>
</svg>
