<svg width="709" height="707" viewBox="0 0 709 707" fill="none" xmlns="http://www.w3.org/2000/svg">
<path d="M63.8779 342.655H67.8967H71.4925H72.9731H74.4537H75.5113" stroke="black" stroke-width="3"/>
<path d="M334.829 89.894L341.386 192.902M315.581 16.2866L349.424 46.7449L351.116 192.902M319.388 59.8588L300.564 86.2983L321.504 196.286M285.757 15.0175L291.045 39.5533L275.182 65.7813L310.716 199.036M302.679 202.209L263.125 82.7025M285.757 209.823L232.244 93.0668L244.723 61.3394M170.481 64.3007L193.96 102.162L228.014 113.584L279.2 212.573M274.124 215.746L232.244 141.504M215.957 124.371L212.573 150.599L263.125 223.995M256.991 228.437L166.04 109.776L120.987 105.969M179.577 152.503L249.377 234.359M236.474 248.319L151.022 171.962L148.695 138.754M95.3935 122.256L114.641 140.023L117.603 169.001L229.494 257.203M223.995 263.971L117.603 189.518M97.9316 171.962L105.969 206.016L217.226 273.066M214.265 279.412L112.949 225.687L80.1643 234.359L38.9188 217.015M133.043 245.781L210.669 284.7M205.593 296.545L122.044 265.029L109.565 240.705M21.363 279.412L59.6473 257.203L202.632 304.371M200.517 313.466L95.3935 284.7M62.8201 291.468L82.2795 324.465L196.286 335.464M196.286 344.982L56.4746 337.79L43.5722 335.464L34.2655 320.446L9.30664 318.119M195.229 349.635L67.8964 342.232M193.748 369.941L66.4158 383.055L40.3994 361.057M193.748 377.132L84.6062 393.419L63.4546 421.55L20.3054 432.126M196.286 383.055L112.526 398.495M199.036 396.168L114.43 419.647L90.3171 408.648M200.517 404.841L59.8588 451.374L42.5146 493.677M202.632 413.513L105.758 452.643M210.669 432.126L114.43 486.063L82.7025 477.179M216.38 442.067L102.796 516.309L73.3958 509.964L50.5522 522.655M222.726 448.201L121.41 522.655M228.225 458.354L132.409 539.153L98.9892 536.192M232.667 464.7L153.137 539.153L151.445 572.995L121.41 605.569M238.589 468.084L178.942 526.462M247.05 479.294L193.748 542.114L166.886 546.556M252.973 484.159L166.886 599.012L175.558 644.065M260.587 490.504L205.382 572.995M277.931 501.503L231.186 596.474L199.459 607.261M288.084 507.637L238.589 629.047L209.823 639.623L197.767 662.89M296.756 510.81L257.626 622.067M314.524 517.578L288.084 633.277L260.587 650.833M323.83 519.271L307.12 620.375L332.502 647.237L330.81 694.617M330.81 519.271L323.83 594.782M343.501 521.174L339.482 599.012L335.675 614.453L327.849 620.375M347.097 521.174L341.598 658.448M337.367 658.448H353.654L383.478 689.752M360.634 524.135L365.922 617.625M381.785 521.174L400.399 617.625L381.785 647.237M393.842 521.174L426.204 642.161L409.706 667.966L413.724 692.29M403.995 519.271L437.414 625.028M413.724 513.56L457.297 620.375L443.76 650.833M421.339 510.81L462.584 599.012L494.735 612.76L516.309 650.833M428.107 509.329L460.258 572.784M441.01 500.869L479.717 563.9L475.487 590.128M448.624 497.273L524.558 607.684L570.246 612.76M457.297 491.139L513.348 563.9M474.006 476.544L542.96 545.498V578.283M479.717 468.084L576.591 550.363V579.764L595.628 599.012M487.755 460.681L576.591 530.058M497.907 444.606L595.628 503.83L603.031 535.134M502.349 436.991L587.802 484.37L621.856 474.429L662.678 493.043M507.637 432.549L568.977 463.642M513.348 418.801L579.976 444.606L592.243 468.084M516.309 410.129L642.584 453.278L682.561 430.646M519.482 400.61L606.626 424.723M523.924 375.44L620.163 386.65L639.2 418.801M523.924 364.23L648.083 370.998L656.544 372.902L668.177 391.304L694.405 394.476M523.924 359.788L635.816 365.922M523.712 335.252L636.662 322.138L661.62 342.867M521.809 327.003L618.048 311.774L639.623 284.065L683.195 273.066M520.117 320.446L590.974 307.332M516.944 305.851L587.59 284.065L612.126 296.122M514.194 297.814L642.161 254.665L660.14 210.881M509.329 289.142L595.205 254.665M498.542 270.317L585.686 219.553L618.048 228.648M492.831 260.799L599.435 189.306L627.355 195.652L651.468 182.538M487.543 252.972L578.918 184.23M474.852 238.166L560.728 157.156L593.724 159.06M468.084 233.09L539.999 159.06V124.794L567.073 89.894M462.584 230.975L515.04 173.231M451.374 221.457L499.811 158.002L524.558 152.503M444.817 215.746L524.558 99.8353L512.714 56.2631M435.722 212.573C435.722 210.373 470.269 154.547 487.543 126.909M416.897 202.209L459.835 104.912L489.447 92.6437M406.321 199.036L451.374 73.1843L478.025 61.7625L489.447 37.4382M397.649 196.286L432.338 80.7989M386.439 192.902L412.878 73.1843L440.798 56.2631M377.344 192.902L393.419 86.2983L370.364 64.3007L368.883 56.2631L371.421 13.96M359.365 192.902L363.595 109.142L368.883 89.894L373.748 86.2983M368.883 192.902L377.344 111.892" stroke="#413F5C" stroke-width="2"/>
<g clip-path="url(#clip0_36_1542)">
<path d="M526.673 358.096C526.673 450.477 451.76 525.378 359.324 525.391C266.955 525.391 192.042 450.477 192.056 358.083C192.029 265.688 266.942 190.787 359.351 190.787C451.76 190.787 526.673 265.701 526.673 358.096Z" fill="#EAB300"/>
<path d="M425.188 317.112C423.032 294.706 403.688 287.197 379.244 285.056V253.963H360.328V284.226C355.362 284.226 350.275 284.319 345.228 284.426V253.963H326.312L326.299 285.029C322.203 285.109 318.173 285.189 314.251 285.189V285.096L288.16 285.082V305.293C288.16 305.293 302.136 305.026 301.895 305.28C309.565 305.28 312.055 309.724 312.778 313.565V348.981C313.314 348.981 313.996 349.008 314.773 349.115H312.778L312.765 398.732C312.43 401.141 311.011 404.982 305.656 404.996C305.897 405.21 291.908 404.996 291.908 404.996L288.146 427.589H312.778C317.357 427.589 321.868 427.67 326.286 427.696L326.299 459.137H345.201V428.031C350.382 428.138 355.402 428.178 360.315 428.178L360.302 459.137H379.217V427.763C411.024 425.943 433.313 417.926 436.071 388.051C438.307 363.999 426.995 353.251 408.936 348.914C419.927 343.346 426.794 333.508 425.188 317.112ZM398.708 384.33C398.708 407.82 358.481 405.156 345.643 405.156V363.49C358.481 363.517 398.708 359.836 398.708 384.33ZM389.9 325.558C389.9 346.933 356.326 344.43 345.643 344.443V306.672C356.339 306.672 389.913 303.272 389.9 325.558Z" fill="white"/>
<path d="M312.805 348.151H315.616V350.226H312.805V348.151Z" fill="white"/>
</g>
<mask id="path-6-inside-1_36_1542" fill="white">
<ellipse cx="61.1283" cy="347.943" rx="4.44183" ry="8.67214"/>
</mask>
<path d="M60.5702 347.943C60.5702 349.713 60.192 351.068 59.819 351.796C59.6339 352.157 59.5418 352.187 59.6736 352.078C59.838 351.943 60.3441 351.615 61.1283 351.615V361.615C65.2058 361.615 67.621 358.499 68.7194 356.355C69.954 353.944 70.5702 350.963 70.5702 347.943H60.5702ZM61.1283 351.615C61.9126 351.615 62.4187 351.943 62.5831 352.078C62.7149 352.187 62.6228 352.157 62.4377 351.796C62.0647 351.068 61.6865 349.713 61.6865 347.943H51.6865C51.6865 350.963 52.3027 353.944 53.5373 356.355C54.6357 358.499 57.0509 361.615 61.1283 361.615V351.615ZM61.6865 347.943C61.6865 346.173 62.0647 344.819 62.4377 344.09C62.6228 343.729 62.7149 343.699 62.5831 343.808C62.4187 343.944 61.9126 344.271 61.1283 344.271V334.271C57.0509 334.271 54.6357 337.387 53.5373 339.532C52.3027 341.942 51.6865 344.924 51.6865 347.943H61.6865ZM61.1283 344.271C60.3441 344.271 59.838 343.944 59.6736 343.808C59.5418 343.699 59.6339 343.729 59.819 344.09C60.192 344.819 60.5702 346.173 60.5702 347.943H70.5702C70.5702 344.924 69.954 341.942 68.7194 339.532C67.621 337.387 65.2058 334.271 61.1283 334.271V344.271Z" fill="#413F5C" mask="url(#path-6-inside-1_36_1542)"/>
<circle cx="59.0126" cy="285.334" r="5.82607" stroke="#413F5C" stroke-width="4"/>
<circle cx="93.2782" cy="535.346" r="5.82607" stroke="#413F5C" stroke-width="4"/>
<circle cx="17.1327" cy="282.796" r="5.82607" stroke="#413F5C" stroke-width="4"/>
<circle cx="116.968" cy="610.222" r="5.82607" stroke="#413F5C" stroke-width="4"/>
<circle cx="45.0526" cy="525.193" r="5.82607" stroke="#413F5C" stroke-width="4"/>
<circle cx="13.7489" cy="433.818" r="5.82607" stroke="#413F5C" stroke-width="4"/>
<circle cx="87.7793" cy="406.744" r="3.71092" stroke="#413F5C" stroke-width="4"/>
<circle cx="582.303" cy="179.577" r="5.82607" stroke="#413F5C" stroke-width="4"/>
<circle cx="666.485" cy="346.674" r="5.82607" stroke="#413F5C" stroke-width="4"/>
<circle cx="657.179" cy="178.308" r="5.82607" stroke="#413F5C" stroke-width="4"/>
<circle cx="661.832" cy="204.958" r="5.82607" stroke="#413F5C" stroke-width="4"/>
<circle cx="624.605" cy="231.186" r="5.82607" stroke="#413F5C" stroke-width="4"/>
<circle cx="600.916" cy="251.915" r="5.82607" stroke="#413F5C" stroke-width="4"/>
<circle cx="596.474" cy="306.274" r="4.7685" stroke="#413F5C" stroke-width="4"/>
<circle cx="616.145" cy="298.448" r="3.71092" stroke="#413F5C" stroke-width="4"/>
<circle cx="689.329" cy="271.374" r="5.82607" stroke="#413F5C" stroke-width="4"/>
<circle cx="701.174" cy="394.053" r="5.82607" stroke="#413F5C" stroke-width="4"/>
<mask id="path-25-inside-2_36_1542" fill="white">
<ellipse cx="641.103" cy="366.133" rx="7.82607" ry="2.7497"/>
</mask>
<path d="M644.929 366.133C644.929 364.852 645.678 364.193 645.759 364.127C645.863 364.04 645.774 364.142 645.311 364.304C644.424 364.616 642.936 364.883 641.103 364.883V372.883C643.593 372.883 646.019 372.535 647.963 371.852C648.917 371.516 649.974 371.025 650.87 370.281C651.743 369.556 652.929 368.174 652.929 366.133H644.929ZM641.103 364.883C639.271 364.883 637.783 364.616 636.895 364.304C636.433 364.142 636.344 364.04 636.448 364.127C636.528 364.193 637.277 364.852 637.277 366.133H629.277C629.277 368.174 630.464 369.556 631.336 370.281C632.233 371.025 633.29 371.516 634.244 371.852C636.188 372.535 638.614 372.883 641.103 372.883V364.883ZM637.277 366.133C637.277 367.415 636.528 368.074 636.448 368.14C636.344 368.227 636.433 368.125 636.895 367.963C637.783 367.651 639.271 367.384 641.103 367.384V359.384C638.614 359.384 636.188 359.732 634.244 360.415C633.29 360.751 632.233 361.242 631.336 361.986C630.464 362.711 629.277 364.093 629.277 366.133H637.277ZM641.103 367.384C642.936 367.384 644.424 367.651 645.311 367.963C645.774 368.125 645.863 368.227 645.759 368.14C645.678 368.074 644.929 367.415 644.929 366.133H652.929C652.929 364.093 651.743 362.711 650.87 361.986C649.974 361.242 648.917 360.751 647.963 360.415C646.019 359.732 643.593 359.384 641.103 359.384V367.384Z" fill="#413F5C" mask="url(#path-25-inside-2_36_1542)"/>
<circle cx="414.359" cy="699.058" r="5.82607" stroke="#413F5C" stroke-width="4"/>
<circle cx="518.848" cy="657.179" r="5.82607" stroke="#413F5C" stroke-width="4"/>
<circle cx="669.446" cy="495.158" r="5.82607" stroke="#413F5C" stroke-width="4"/>
<circle cx="573.841" cy="465.969" r="4.55698" stroke="#413F5C" stroke-width="4"/>
<circle cx="593.935" cy="472.526" r="4.34547" stroke="#413F5C" stroke-width="4"/>
<circle cx="613.606" cy="424.934" r="5.82607" stroke="#413F5C" stroke-width="4"/>
<circle cx="641.526" cy="424.934" r="5.82607" stroke="#413F5C" stroke-width="4"/>
<circle cx="686.791" cy="424.934" r="5.82607" stroke="#413F5C" stroke-width="4"/>
<circle cx="581.879" cy="533.23" r="5.82607" stroke="#413F5C" stroke-width="4"/>
<circle cx="603.454" cy="540.845" r="5.82607" stroke="#413F5C" stroke-width="4"/>
<circle cx="600.492" cy="603.877" r="5.82607" stroke="#413F5C" stroke-width="4"/>
<circle cx="577.225" cy="612.76" r="5.82607" stroke="#413F5C" stroke-width="4"/>
<circle cx="542.537" cy="584.417" r="5.82607" stroke="#413F5C" stroke-width="4"/>
<circle cx="517.155" cy="568.765" r="5.82607" stroke="#413F5C" stroke-width="4"/>
<circle cx="474.641" cy="593.512" r="3.07637" stroke="#413F5C" stroke-width="4"/>
<circle cx="462.584" cy="577.226" r="4.13395" stroke="#413F5C" stroke-width="4"/>
<circle cx="441.01" cy="656.756" r="5.82607" stroke="#413F5C" stroke-width="4"/>
<circle cx="438.894" cy="630.951" r="5.82607" stroke="#413F5C" stroke-width="4"/>
<mask id="path-45-inside-3_36_1542" fill="white">
<ellipse cx="329.753" cy="699.058" rx="3.17273" ry="7.82607"/>
</mask>
<path d="M328.926 699.058C328.926 700.835 328.626 702.259 328.289 703.09C328.117 703.515 328.012 703.594 328.1 703.502C328.198 703.399 328.757 702.885 329.753 702.885V710.885C331.625 710.885 333.018 709.932 333.876 709.037C334.723 708.153 335.302 707.086 335.703 706.095C336.515 704.094 336.926 701.604 336.926 699.058H328.926ZM329.753 702.885C330.749 702.885 331.307 703.399 331.406 703.502C331.494 703.594 331.389 703.515 331.216 703.09C330.879 702.259 330.58 700.835 330.58 699.058H322.58C322.58 701.604 322.991 704.094 323.802 706.095C324.204 707.086 324.783 708.153 325.63 709.037C326.488 709.932 327.881 710.885 329.753 710.885V702.885ZM330.58 699.058C330.58 697.282 330.879 695.858 331.216 695.027C331.389 694.602 331.494 694.523 331.406 694.615C331.307 694.718 330.749 695.232 329.753 695.232V687.232C327.881 687.232 326.488 688.185 325.63 689.08C324.783 689.964 324.204 691.031 323.802 692.022C322.991 694.023 322.58 696.513 322.58 699.058H330.58ZM329.753 695.232C328.757 695.232 328.198 694.718 328.1 694.615C328.012 694.523 328.117 694.602 328.289 695.027C328.626 695.858 328.926 697.282 328.926 699.058H336.926C336.926 696.513 336.515 694.023 335.703 692.022C335.302 691.031 334.723 689.964 333.876 689.08C333.018 688.185 331.625 687.232 329.753 687.232V695.232Z" fill="#413F5C" mask="url(#path-45-inside-3_36_1542)"/>
<circle cx="388.977" cy="694.405" r="5.82607" stroke="#413F5C" stroke-width="4"/>
<circle cx="378.824" cy="652.102" r="5.82607" stroke="#413F5C" stroke-width="4"/>
<circle cx="366.557" cy="622.913" r="5.82607" stroke="#413F5C" stroke-width="4"/>
<circle cx="322.139" cy="620.798" r="5.82607" stroke="#413F5C" stroke-width="4"/>
<circle cx="322.139" cy="601.339" r="5.82607" stroke="#413F5C" stroke-width="4"/>
<circle cx="254.876" cy="653.371" r="5.82607" stroke="#413F5C" stroke-width="4"/>
<circle cx="255.723" cy="628.412" r="5.82607" stroke="#413F5C" stroke-width="4"/>
<circle cx="195.228" cy="669.023" r="5.82607" stroke="#413F5C" stroke-width="4"/>
<circle cx="193.113" cy="608.953" r="5.82607" stroke="#413F5C" stroke-width="4"/>
<circle cx="201.997" cy="578.918" r="5.82607" stroke="#413F5C" stroke-width="4"/>
<path d="M176.605 532.513C175.572 533.789 174.398 534.624 173.42 535.001C172.384 535.4 171.972 535.17 171.902 535.113C171.832 535.057 171.522 534.702 171.697 533.606C171.862 532.57 172.434 531.248 173.467 529.972C174.5 528.697 175.674 527.862 176.652 527.485C177.688 527.086 178.1 527.316 178.17 527.372C178.239 527.429 178.55 527.784 178.375 528.88C178.21 529.915 177.638 531.237 176.605 532.513Z" stroke="#413F5C" stroke-width="4"/>
<circle cx="162.655" cy="547.19" r="3.71092" stroke="#413F5C" stroke-width="4"/>
<circle cx="114.852" cy="526.462" r="5.82607" stroke="#413F5C" stroke-width="4"/>
<circle cx="176.192" cy="649.141" r="5.82607" stroke="#413F5C" stroke-width="4"/>
<circle cx="284.065" cy="7.82607" r="5.82607" stroke="#413F5C" stroke-width="4"/>
<circle cx="600.069" cy="159.271" r="5.82607" stroke="#413F5C" stroke-width="4"/>
<circle cx="518.848" cy="166.886" r="5.82607" stroke="#413F5C" stroke-width="4"/>
<circle cx="531.115" cy="150.388" r="5.82607" stroke="#413F5C" stroke-width="4"/>
<circle cx="571.726" cy="84.3944" r="5.82607" stroke="#413F5C" stroke-width="4"/>
<circle cx="490.928" cy="120.775" r="5.82607" stroke="#413F5C" stroke-width="4"/>
<circle cx="377.556" cy="105.123" r="5.82607" stroke="#413F5C" stroke-width="4"/>
<circle cx="495.158" cy="89.4711" r="5.82607" stroke="#413F5C" stroke-width="4"/>
<circle cx="435.088" cy="75.0878" r="5.82607" stroke="#413F5C" stroke-width="4"/>
<circle cx="511.656" cy="49.2831" r="5.82607" stroke="#413F5C" stroke-width="4"/>
<circle cx="492.196" cy="31.9389" r="5.82607" stroke="#413F5C" stroke-width="4"/>
<circle cx="446.933" cy="52.244" r="5.82607" stroke="#413F5C" stroke-width="4"/>
<circle cx="378.824" cy="82.7025" r="5.82607" stroke="#413F5C" stroke-width="4"/>
<mask id="path-74-inside-4_36_1542" fill="white">
<ellipse cx="370.998" cy="9.09512" rx="2.53819" ry="7.82607"/>
</mask>
<path d="M369.536 9.09512C369.536 10.955 369.286 12.4757 368.988 13.395C368.832 13.8768 368.732 13.9768 368.812 13.8722C368.848 13.8257 369.55 12.9212 370.998 12.9212V20.9212C373.147 20.9212 374.517 19.5787 375.16 18.7401C375.848 17.8435 376.295 16.7974 376.598 15.863C377.218 13.9498 377.536 11.5575 377.536 9.09512H369.536ZM370.998 12.9212C372.447 12.9212 373.149 13.8257 373.184 13.8722C373.265 13.9768 373.165 13.8768 373.008 13.395C372.71 12.4757 372.46 10.955 372.46 9.09512H364.46C364.46 11.5575 364.778 13.9498 365.398 15.863C365.702 16.7974 366.148 17.8435 366.836 18.7401C367.479 19.5787 368.849 20.9212 370.998 20.9212V12.9212ZM372.46 9.09512C372.46 7.23527 372.71 5.71454 373.008 4.79527C373.165 4.31344 373.265 4.21339 373.184 4.31802C373.149 4.36452 372.447 5.26904 370.998 5.26904V-2.73096C368.849 -2.73096 367.479 -1.38845 366.836 -0.549916C366.148 0.346758 365.702 1.39282 365.398 2.32723C364.778 4.24044 364.46 6.63275 364.46 9.09512H372.46ZM370.998 5.26904C369.55 5.26904 368.848 4.36452 368.812 4.31802C368.732 4.21339 368.832 4.31344 368.988 4.79527C369.286 5.71454 369.536 7.23527 369.536 9.09512H377.536C377.536 6.63275 377.218 4.24044 376.598 2.32723C376.295 1.39282 375.848 0.346758 375.16 -0.549916C374.517 -1.38845 373.147 -2.73096 370.998 -2.73096V5.26904Z" fill="#413F5C" mask="url(#path-74-inside-4_36_1542)"/>
<circle cx="309.87" cy="11.6332" r="5.82607" stroke="#413F5C" stroke-width="4"/>
<circle cx="101.316" cy="455.393" r="5.82607" stroke="#413F5C" stroke-width="4"/>
<circle cx="39.9765" cy="498.965" r="5.82607" stroke="#413F5C" stroke-width="4"/>
<circle cx="96.663" cy="165.194" r="5.82607" stroke="#413F5C" stroke-width="4"/>
<circle cx="77.6259" cy="475.698" r="5.82607" stroke="#413F5C" stroke-width="4"/>
<circle cx="247.262" cy="56.0517" r="5.82607" stroke="#413F5C" stroke-width="4"/>
<circle cx="260.799" cy="77.6259" r="5.82607" stroke="#413F5C" stroke-width="4"/>
<circle cx="322.984" cy="54.7826" r="5.82607" stroke="#413F5C" stroke-width="4"/>
<circle cx="166.463" cy="58.5897" r="5.82607" stroke="#413F5C" stroke-width="4"/>
<path d="M219.669 120.564C219.669 122.571 218.123 124.063 216.381 124.063C214.638 124.063 213.093 122.571 213.093 120.564C213.093 118.557 214.638 117.064 216.381 117.064C218.123 117.064 219.669 118.557 219.669 120.564Z" stroke="#413F5C" stroke-width="4"/>
<circle cx="89.8944" cy="118.237" r="5.82607" stroke="#413F5C" stroke-width="4"/>
<circle cx="229.706" cy="137.062" r="3.92243" stroke="#413F5C" stroke-width="4"/>
<circle cx="334.406" cy="82.7025" r="5.82607" stroke="#413F5C" stroke-width="4"/>
<circle cx="176.615" cy="147.426" r="5.82607" stroke="#413F5C" stroke-width="4"/>
<circle cx="148.272" cy="131.774" r="5.82607" stroke="#413F5C" stroke-width="4"/>
<circle cx="114.007" cy="106.392" r="5.82607" stroke="#413F5C" stroke-width="4"/>
<circle cx="105.97" cy="399.13" r="5.82607" stroke="#413F5C" stroke-width="4"/>
<circle cx="37.2263" cy="357.884" r="4.34547" stroke="#413F5C" stroke-width="4"/>
<circle cx="112.738" cy="186.768" r="5.82607" stroke="#413F5C" stroke-width="4"/>
<circle cx="32.7851" cy="215.111" r="5.82607" stroke="#413F5C" stroke-width="4"/>
<path d="M132.468 244.603C131.916 246.338 129.427 247.751 126.332 246.767C123.236 245.782 122.022 243.19 122.573 241.455C123.125 239.72 125.615 238.306 128.71 239.291C131.805 240.276 133.02 242.868 132.468 244.603Z" stroke="#413F5C" stroke-width="4"/>
<circle cx="107.661" cy="236.263" r="4.55698" stroke="#413F5C" stroke-width="4"/>
<path d="M8.15274 319.177C8.15274 321.543 7.63685 323.587 6.9012 324.966C6.11972 326.431 5.37996 326.695 5.07637 326.695C4.77278 326.695 4.03302 326.431 3.25154 324.966C2.51589 323.587 2 321.543 2 319.177C2 316.81 2.51589 314.767 3.25154 313.388C4.03302 311.922 4.77278 311.659 5.07637 311.659C5.37996 311.659 6.11972 311.922 6.9012 313.388C7.63685 314.767 8.15274 316.81 8.15274 319.177Z" stroke="#413F5C" stroke-width="4"/>
<circle cx="89.0478" cy="282.796" r="5.82607" stroke="#413F5C" stroke-width="4"/>
<defs>
<clipPath id="clip0_36_1542">
<rect width="334.618" height="334.618" fill="white" transform="translate(192.056 190.787)"/>
</clipPath>
</defs>
</svg>
