<svg width="347" height="73" viewBox="0 0 347 73" fill="none" xmlns="http://www.w3.org/2000/svg">
<path d="M71.9698 45.5718C67.1526 64.8866 47.5828 76.6414 28.2588 71.8248C8.94265 67.0093 -2.81633 47.4455 2.00313 28.1318C6.81808 8.81472 26.3878 -2.94115 45.7062 1.87432C65.0291 6.68979 76.787 26.2559 71.9698 45.5718Z" fill="#F7931A"/>
<path d="M52.8825 31.7138C53.6004 26.9163 49.9464 24.3373 44.95 22.6169L46.5708 16.1181L42.6135 15.1323L41.0356 21.4598C39.9953 21.2006 38.9268 20.9561 37.8651 20.7139L39.4543 14.3447L35.4993 13.3589L33.8774 19.8554C33.0163 19.6593 32.171 19.4655 31.3505 19.2616L31.355 19.2413L25.8976 17.8792L24.8449 22.1042C24.8449 22.1042 27.781 22.7769 27.719 22.8186C29.3217 23.2185 29.6114 24.2788 29.5629 25.1193L27.7167 32.5227C27.8272 32.5509 27.9703 32.5915 28.1281 32.6546C27.9962 32.6219 27.8553 32.5858 27.71 32.5509L25.1221 42.9221C24.926 43.4088 24.429 44.1389 23.3086 43.8617C23.3481 43.9192 20.4323 43.144 20.4323 43.144L18.4678 47.6722L23.6175 48.9555C24.5755 49.1955 25.5144 49.4467 26.4386 49.6833L24.8009 56.2564L28.7536 57.2423L30.3755 50.739C31.4553 51.032 32.5035 51.3024 33.5291 51.557L31.9129 58.0298L35.8701 59.0157L37.5078 52.455C44.2557 53.7315 49.3299 53.2166 51.4657 47.1156C53.1868 42.2032 51.3801 39.3696 47.8297 37.5219C50.4153 36.9258 52.3629 35.2257 52.8825 31.7138ZM43.8409 44.3879C42.618 49.3003 34.344 46.6447 31.6615 45.9788L33.8346 37.2706C36.5171 37.9399 45.1191 39.2648 43.8409 44.3879ZM45.065 31.6428C43.9491 36.1112 37.0626 33.841 34.8287 33.2844L36.7988 25.3863C39.0327 25.9429 46.227 26.9817 45.065 31.6428Z" fill="white"/>
<path d="M106.612 22.6142C109.537 22.6142 112.064 23.1381 114.187 24.1668C116.321 25.2056 118.081 26.605 119.493 28.3648C120.886 30.1337 121.923 32.2012 122.593 34.5706C123.258 36.9468 123.591 39.501 123.591 42.2355C123.591 46.4358 122.822 50.404 121.267 54.1446C119.713 57.8908 117.604 61.1402 114.922 63.9119C112.242 66.6801 109.077 68.8625 105.427 70.4748C101.783 72.0882 97.8216 72.895 93.5679 72.895C93.0179 72.895 92.0508 72.8792 90.6848 72.851C89.3188 72.8228 87.7487 72.682 85.9904 72.4443C84.2209 72.1975 82.3499 71.8325 80.3741 71.3435C78.3995 70.8635 76.524 70.1909 74.7578 69.3369L90.5507 3.00196L104.696 0.810547L99.0411 24.3505C100.252 23.8051 101.471 23.3826 102.688 23.075C103.907 22.772 105.214 22.6142 106.612 22.6142ZM94.7468 61.6776C96.877 61.6776 98.8844 61.1537 100.77 60.1251C102.661 59.0953 104.293 57.7049 105.66 55.9732C107.028 54.2336 108.11 52.2743 108.899 50.0851C109.688 47.896 110.087 45.6122 110.087 43.236C110.087 40.3168 109.599 38.0397 108.626 36.3936C107.653 34.7543 105.853 33.9296 103.239 33.9296C102.383 33.9296 101.279 34.0929 99.9112 34.3847C98.5384 34.6946 97.3099 35.3379 96.2087 36.3057L90.1877 61.3047C90.5507 61.3689 90.8719 61.4298 91.1458 61.4872C91.414 61.5492 91.7104 61.5931 92.0057 61.6236C92.3179 61.6585 92.6752 61.6765 93.1069 61.6765C93.5386 61.6765 94.0785 61.6776 94.7468 61.6776Z" fill="white"/>
<path d="M138.264 71.6195H124.754L136.163 23.626H149.766L138.264 71.6195ZM144.839 17.7785C142.953 17.7785 141.243 17.2174 139.726 16.0929C138.197 14.9753 137.439 13.2548 137.439 10.9361C137.439 9.66067 137.699 8.46412 138.213 7.33518C138.734 6.20849 139.416 5.23841 140.271 4.41368C141.124 3.5957 142.112 2.94222 143.235 2.44986C144.364 1.96538 145.566 1.72314 146.846 1.72314C148.731 1.72314 150.431 2.28424 151.954 3.40867C153.471 4.53874 154.234 6.25919 154.234 8.56552C154.234 9.84544 153.976 11.0465 153.458 12.1732C152.943 13.2999 152.261 14.2699 151.406 15.0947C150.56 15.9138 149.562 16.565 148.442 17.0529C147.312 17.5452 146.115 17.7785 144.839 17.7785Z" fill="white"/>
<path d="M161.603 11.6709L175.754 9.47949L172.279 23.6262H187.434L184.698 34.7556H169.634L165.622 51.5433C165.252 52.9426 165.042 54.2496 164.984 55.4642C164.917 56.6844 165.072 57.7322 165.437 58.6144C165.8 59.4988 166.452 60.1805 167.399 60.6627C168.341 61.1528 169.69 61.3996 171.46 61.3996C172.917 61.3996 174.337 61.261 175.71 60.9861C177.075 60.7157 178.458 60.3393 179.858 59.847L180.866 70.2531C179.04 70.9223 177.063 71.4981 174.932 71.9825C172.799 72.4738 170.273 72.7104 167.354 72.7104C163.157 72.7104 159.903 72.0873 157.584 70.8468C155.269 69.5973 153.633 67.8904 152.653 65.7294C151.687 63.5763 151.256 61.0942 151.376 58.2978C151.501 55.4946 151.924 52.5483 152.653 49.4454L161.603 11.6709Z" fill="white"/>
<path d="M186.838 52.4603C186.838 48.3265 187.507 44.4281 188.845 40.7788C190.181 37.1261 192.105 33.9319 194.601 31.1907C197.089 28.4629 200.12 26.302 203.687 24.7156C207.237 23.1382 211.212 22.3428 215.593 22.3428C218.336 22.3428 220.785 22.6019 222.94 23.1213C225.104 23.6452 227.062 24.3224 228.832 25.1719L224.173 35.7628C222.956 35.2693 221.692 34.8344 220.386 34.44C219.078 34.0378 217.482 33.844 215.595 33.844C211.085 33.844 207.52 35.3977 204.867 38.495C202.224 41.5945 200.893 45.7666 200.893 51.0001C200.893 54.1019 201.562 56.6099 202.906 58.5286C204.242 60.4474 206.712 61.4017 210.297 61.4017C212.067 61.4017 213.774 61.2169 215.41 60.8564C217.058 60.4913 218.513 60.0316 219.794 59.4886L220.803 70.3453C219.094 71.0078 217.21 71.6061 215.143 72.13C213.071 72.6359 210.605 72.8984 207.746 72.8984C203.971 72.8984 200.776 72.3463 198.162 71.2591C195.547 70.1549 193.386 68.6891 191.684 66.8323C189.973 64.971 188.745 62.7977 187.985 60.3032C187.226 57.8109 186.838 55.1925 186.838 52.4603Z" fill="white"/>
<path d="M246.854 72.896C243.63 72.896 240.829 72.4047 238.453 71.4324C236.084 70.4601 234.121 69.0957 232.569 67.3268C231.015 65.5669 229.852 63.4814 229.055 61.0781C228.258 58.676 227.875 56.0159 227.875 53.1012C227.875 49.4451 228.462 45.7901 229.649 42.1453C230.83 38.4925 232.583 35.2105 234.902 32.2935C237.204 29.372 240.043 26.9834 243.386 25.121C246.726 23.271 250.567 22.3403 254.881 22.3403C258.047 22.3403 260.834 22.8327 263.242 23.805C265.639 24.7751 267.614 26.1508 269.175 27.9107C270.719 29.6796 271.893 31.7561 272.682 34.1627C273.476 36.5603 273.868 39.2271 273.868 42.1441C273.868 45.789 273.289 49.444 272.139 53.1001C270.989 56.7381 269.281 60.0281 267.027 62.9518C264.777 65.8688 261.964 68.2563 258.585 70.1108C255.21 71.9653 251.297 72.896 246.854 72.896ZM253.607 33.8427C251.604 33.8427 249.833 34.4241 248.317 35.5722C246.796 36.7338 245.517 38.194 244.487 39.955C243.446 41.7239 242.674 43.6528 242.152 45.7495C241.635 47.8508 241.381 49.8372 241.381 51.7244C241.381 54.7698 241.872 57.1415 242.838 58.8484C243.818 60.5463 245.577 61.4004 248.135 61.4004C250.144 61.4004 251.906 60.8235 253.431 59.663C254.943 58.5104 256.223 57.0491 257.261 55.2847C258.295 53.5248 259.074 51.5903 259.596 49.4901C260.107 47.3956 260.367 45.398 260.367 43.5142C260.367 40.4766 259.878 38.0993 258.903 36.3946C257.929 34.6967 256.162 33.8427 253.607 33.8427Z" fill="white"/>
<path d="M288.595 71.6195H275.073L286.483 23.626H300.093L288.595 71.6195ZM295.159 17.7785C293.275 17.7785 291.566 17.2174 290.051 16.0929C288.53 14.9753 287.765 13.2548 287.765 10.9361C287.765 9.66067 288.028 8.46412 288.543 7.33518C289.058 6.20849 289.745 5.23841 290.599 4.41368C291.448 3.5957 292.445 2.94222 293.565 2.44986C294.688 1.96538 295.89 1.72314 297.165 1.72314C299.054 1.72314 300.761 2.28424 302.28 3.40867C303.801 4.53874 304.568 6.25919 304.568 8.56552C304.568 9.84544 304.295 11.0465 303.785 12.1732C303.274 13.2999 302.588 14.2699 301.737 15.0947C300.88 15.9138 299.895 16.565 298.773 17.0529C297.641 17.5452 296.442 17.7785 295.159 17.7785Z" fill="white"/>
<path d="M309.824 25.8127C310.849 25.513 311.994 25.1525 313.24 24.7604C314.49 24.3683 315.886 24.0033 317.446 23.6743C318.989 23.3351 320.731 23.0602 322.645 22.8473C324.56 22.6298 326.742 22.5239 329.167 22.5239C336.292 22.5239 341.204 24.5982 343.916 28.7342C346.626 32.8703 347.094 38.5308 345.336 45.7055L339.121 71.6194H325.522L331.545 46.2509C331.912 44.6667 332.201 43.1356 332.414 41.6393C332.629 40.1566 332.617 38.8496 332.366 37.7185C332.125 36.6008 331.56 35.6859 330.682 34.9772C329.79 34.2798 328.443 33.9294 326.616 33.9294C324.855 33.9294 323.062 34.1187 321.233 34.4837L312.378 71.6183H298.772L309.824 25.8127Z" fill="white"/>
</svg>
